<svg width="139" height="122" viewBox="0 0 139 122" fill="none" xmlns="http://www.w3.org/2000/svg">
<path d="M81.2313 68.9527C79.8802 69.1634 78.5733 69.6479 77.3918 70.3759C74.3119 72.22 72.5778 75.0624 73.5188 76.724C74.4598 78.3856 77.7193 78.2368 80.7992 76.3927C81.9979 75.6952 83.0527 74.766 83.8986 73.6627C84.2905 73.1282 84.3411 72.4278 84.0279 71.8765L82.8055 69.7179C82.4943 69.1651 81.8766 68.8652 81.2313 68.9527Z" fill="#D5D6DB"/>
<path d="M73.3875 41.9565C72.4078 42.1094 71.4601 42.461 70.6032 42.9889C68.3705 44.3258 67.1124 46.3867 67.7942 47.5906C68.4759 48.7945 70.8403 48.6864 73.0728 47.3497C73.942 46.8436 74.7067 46.1694 75.3202 45.3693C75.604 44.9819 75.6406 44.4745 75.4136 44.0748L74.5284 42.5117C74.3031 42.111 73.8555 41.8932 73.3875 41.9565Z" fill="#D5D6DB"/>
<path d="M60.5583 42.2216C60.3379 42.1788 60.1058 42.2213 59.9071 42.3404L54.6674 45.4729C54.2291 45.734 54.0685 46.2906 54.3091 46.7165C54.3641 46.8141 54.4379 46.8995 54.5262 46.9679L68.0369 57.4824L85.5087 47.0372L60.5583 42.2216Z" fill="#029BC5"/>
<path d="M117.104 43.484L68.8529 73.085L40.0752 83.2767L25.2977 85.264L23.5659 82.1167L104.028 33.8542C106.425 32.4089 109.122 31.622 111.846 31.5734C113.039 31.5591 114.222 31.6989 115.367 31.9889C116.382 32.2375 117.35 32.6359 118.242 33.1724C119.238 33.779 121.105 33.9922 121.741 35.0905C121.743 35.089 123.32 40.0214 117.104 43.484Z" fill="#E1E6E9"/>
<path d="M68.8579 67.372L48.7961 101.622C48.5473 102.105 48.7227 102.684 49.1876 102.913C49.4728 103.054 49.8158 103.035 50.099 102.863L55.3822 99.6547C56.3983 99.0373 57.2894 98.2211 58.0004 97.2566L97.494 49.1401L68.8579 67.372Z" fill="#029BC5"/>
<path d="M16.0462 66.535C15.6933 66.3846 15.2802 66.416 14.9373 66.6191L10.6324 69.1692C10.0458 69.5163 9.83185 70.2552 10.1543 70.8197C10.2158 70.9271 10.2942 71.0234 10.387 71.105L23.0519 82.2648L35.7387 74.9169L16.0462 66.535Z" fill="#029BC5"/>
<path d="M26.7812 83.529L20.3646 93.0508C20.2705 93.1875 20.2995 93.3709 20.4295 93.4603C20.5232 93.5247 20.6483 93.5246 20.7479 93.4599L24.8336 90.9743C24.8654 90.955 24.8939 90.9299 24.9171 90.9005L34.3548 78.9264L26.7812 83.529Z" fill="#029BC5"/>
<path d="M114.866 31.9534C113.7 31.666 112.495 31.5289 111.279 31.5446C110.149 33.1903 109.454 35.0847 109.264 37.0386C109.258 37.4337 109.572 37.7433 109.966 37.7302C110.088 37.7259 110.208 37.6904 110.316 37.6267L117.796 33.1281C116.887 32.595 115.9 32.1996 114.866 31.9534Z" fill="#029BC5"/>
<path d="M98.332 40.3955L103.112 37.6283L107.926 45.867L103.146 48.6342L98.332 40.3955Z" fill="#D5D6DB"/>
<path d="M95.1674 43.7975C94.5903 44.1323 94.3804 44.8501 94.699 45.4009L95.2153 46.2931C95.5532 46.832 96.2862 46.9825 96.8526 46.6292C97.3916 46.2927 97.5894 45.6163 97.3049 45.0812L96.7886 44.189C96.4702 43.6387 95.7446 43.4634 95.1674 43.7975Z" fill="#3A556A"/>
<path d="M90.7031 46.57C90.1259 46.9047 89.916 47.6226 90.2347 48.1733L90.751 49.0655C91.0889 49.6045 91.8219 49.755 92.3883 49.4016C92.9273 49.0651 93.1251 48.3887 92.8405 47.8536L92.3242 46.9614C92.0056 46.4113 91.28 46.236 90.7031 46.57Z" fill="#3A556A"/>
<path d="M86.2375 49.3432C85.661 49.6784 85.4519 50.3955 85.7703 50.9457L86.2866 51.8379C86.6245 52.3769 87.3575 52.5274 87.9239 52.1741C88.4629 51.8375 88.6607 51.1612 88.3762 50.6261L87.8599 49.7339C87.5412 49.1832 86.8149 49.0083 86.2375 49.3432Z" fill="#3A556A"/>
<path d="M81.7732 52.1156C81.1966 52.4509 80.9876 53.168 81.306 53.7182L81.8223 54.6104C82.1602 55.1494 82.8932 55.2999 83.4596 54.9466C83.9986 54.61 84.1964 53.9336 83.9118 53.3985L83.3955 52.5063C83.0766 51.9558 82.3503 51.7809 81.7732 52.1156Z" fill="#3A556A"/>
<path d="M77.3092 54.8881C76.7325 55.2234 76.5233 55.9404 76.8418 56.4907L77.3583 57.3828C77.6767 57.9328 78.4024 58.1076 78.9793 57.7731C79.5562 57.4387 79.7657 56.7217 79.4473 56.1717L78.9309 55.2796C78.6132 54.7292 77.8877 54.5537 77.3104 54.8874C77.3099 54.8877 77.3097 54.8878 77.3092 54.8881Z" fill="#3A556A"/>
<path d="M72.8443 57.6606C72.2676 57.9958 72.0584 58.7129 72.377 59.2631L72.8934 60.1553C73.2118 60.7053 73.9376 60.88 74.5144 60.5456C75.0913 60.2112 75.3009 59.4942 74.9825 58.9442L74.466 58.052C74.1484 57.5016 73.4228 57.3261 72.8455 57.6599C72.8451 57.6601 72.8446 57.6604 72.8443 57.6606Z" fill="#3A556A"/>
<path d="M68.38 60.433C67.8033 60.7683 67.5941 61.4853 67.9126 62.0356L68.4291 62.9277C68.7482 63.4773 69.4742 63.6509 70.0505 63.3159C70.6257 62.9815 70.8348 62.266 70.5178 61.7168L70.0014 60.8246C69.6831 60.2743 68.9574 60.0989 68.38 60.433Z" fill="#3A556A"/>
<path d="M63.9151 63.2055C63.3384 63.5408 63.1292 64.2578 63.4478 64.8081L63.9642 65.7002C64.2833 66.2498 65.0094 66.4234 65.5856 66.0884C66.1609 65.754 66.37 65.0385 66.053 64.4893L65.5365 63.5971C65.2183 63.0467 64.4925 62.8714 63.9151 63.2055Z" fill="#3A556A"/>
<path d="M59.4513 65.978C58.8745 66.3132 58.6654 67.0303 58.9839 67.5805L59.5004 68.4726C59.8195 69.0222 60.5455 69.1958 61.1218 68.8608C61.697 68.5264 61.9061 67.811 61.5891 67.2617L61.0727 66.3696C60.7542 65.8193 60.0284 65.644 59.4513 65.978Z" fill="#3A556A"/>
<path d="M54.9854 68.7511C54.4086 69.0856 54.199 69.8026 54.5174 70.3525L54.5181 70.3537L55.0345 71.2459C55.3536 71.7955 56.0797 71.9691 56.6559 71.6341C57.2312 71.2997 57.4403 70.5842 57.1233 70.0349L56.6069 69.1427C56.2886 68.5924 55.5628 68.417 54.9854 68.7511Z" fill="#3A556A"/>
<path d="M50.5221 71.5229C49.9452 71.8573 49.7356 72.5743 50.054 73.1243L50.0547 73.1254L50.5712 74.0176C50.8903 74.5671 51.6164 74.7408 52.1926 74.4058C52.7679 74.0713 52.977 73.3559 52.66 72.8066L52.1435 71.9145C51.825 71.3643 51.0992 71.1889 50.5221 71.5229Z" fill="#3A556A"/>
</svg>
